<svg width="16" height="16" viewBox="0 0 16 16" fill="none" xmlns="http://www.w3.org/2000/svg">
<g clip-path="url(#clip0_203_1021)">
<path d="M3.5 5C3.5 5.8284 4.1716 6.5 5 6.5C5.8284 6.5 6.5 5.8284 6.5 5C6.5 4.1716 5.8284 3.5 5 3.5C4.1716 3.5 3.5 4.1716 3.5 5Z" fill="#333333"/>
<path d="M9.5 5C9.5 5.8284 10.1716 6.5 11 6.5C11.8284 6.5 12.5 5.8284 12.5 5C12.5 4.1716 11.8284 3.5 11 3.5C10.1716 3.5 9.5 4.1716 9.5 5Z" fill="#333333"/>
<path d="M11 12.5C10.1716 12.5 9.5 11.8284 9.5 11C9.5 10.1716 10.1716 9.5 11 9.5C11.8284 9.5 12.5 10.1716 12.5 11C12.5 11.8284 11.8284 12.5 11 12.5Z" fill="#333333"/>
<path d="M3.5 11C3.5 11.8284 4.1716 12.5 5 12.5C5.8284 12.5 6.5 11.8284 6.5 11C6.5 10.1716 5.8284 9.5 5 9.5C4.1716 9.5 3.5 10.1716 3.5 11Z" fill="#333333"/>
</g>
<defs>
<clipPath id="clip0_203_1021">
<rect width="16" height="16" rx="8" fill="white"/>
</clipPath>
</defs>
</svg>
